<?xml version="1.0" encoding="UTF-8" standalone="no"?>
<!DOCTYPE svg PUBLIC "-//W3C//DTD SVG 1.1//EN" "http://www.w3.org/Graphics/SVG/1.1/DTD/svg11.dtd">
<svg width="1600" height="1500" viewBox="0 0 1600 1500" version="1.1" xmlns="http://www.w3.org/2000/svg" xmlns:xlink="http://www.w3.org/1999/xlink" xml:space="preserve" xmlns:serif="http://www.serif.com/" style="fill-rule:evenodd;clip-rule:evenodd;stroke-linejoin:round;stroke-miterlimit:2;">
    <g transform="matrix(1,0,0,1,-4950,-1550)">
        <rect id="画板7" x="4950" y="1550" width="1600" height="1500" style="fill:none;"/>
        <g id="画板71" serif:id="画板7">
            <g transform="matrix(85.714286,0,0,85.714286,-25964.285714,-6400)">
                <path d="M363.5,95L367.5,95C367.776,95 368,95.224 368,95.5L368,97L376.5,97C376.776,97 377,97.224 377,97.5L377,99L363,99L363,95.5C363,95.224 363.224,95 363.5,95ZM363.5,100L376.5,100C376.776,100 377,100.224 377,100.5L377,107.5C377,107.776 376.776,108 376.5,108L363.5,108C363.224,108 363,107.776 363,107.5L363,100.5C363,100.224 363.224,100 363.5,100ZM369.769,101.823L371.545,101.823L371.545,106.154L368.371,106.154L368.371,104.311C368.371,103.989 368.11,103.728 367.787,103.728L367.765,103.728C367.61,103.728 367.462,103.79 367.353,103.899C367.243,104.008 367.182,104.157 367.182,104.311L367.182,106.881C367.182,107.137 367.389,107.344 367.644,107.344L372.404,107.344C372.659,107.344 372.866,107.137 372.866,106.881L372.866,101.097C372.866,100.841 372.659,100.634 372.404,100.634L369.709,100.634C369.603,100.634 369.502,100.676 369.427,100.751L367.412,102.766C367.305,102.873 367.273,103.034 367.331,103.174C367.389,103.314 367.525,103.405 367.677,103.405L369.196,103.405C369.513,103.405 369.769,103.149 369.769,102.833L369.769,101.823Z" style="fill:white;"/>
            </g>
        </g>
    </g>
</svg>
